<svg xmlns="http://www.w3.org/2000/svg" viewBox="0 0 256 256"><defs><linearGradient id="s" x1="40" y1="20" x2="210" y2="230"><stop stop-color="#67E8F9"/><stop offset=".45" stop-color="#6366F1"/><stop offset="1" stop-color="#6D28D9"/></linearGradient><radialGradient id="g"><stop stop-color="#93C5FD" stop-opacity=".8"/><stop offset="1" stop-color="#4C1D95" stop-opacity="0"/></radialGradient></defs><circle cx="128" cy="131" r="104" fill="url(#g)" opacity=".42"/><path d="M128 25l74 30v58c0 57-35 94-74 118-39-24-74-61-74-118V55z" fill="url(#s)" stroke="#D8B4FE" stroke-width="5"/><path d="M128 54l48 19v39c0 37-21 63-48 82-27-19-48-45-48-82V73z" fill="#171A38" opacity=".56"/><rect x="101" y="111" width="54" height="50" rx="12" fill="#C4B5FD" opacity=".93"/><path d="M111 111v-13c0-18 12-31 29-31s29 13 29 31v13" fill="none" stroke="#fff" stroke-width="8" stroke-linecap="round" transform="translate(-12 0)"/><circle cx="128" cy="136" r="9" fill="#4C1D95"/><path d="M128 145v10" stroke="#4C1D95" stroke-width="7" stroke-linecap="round"/></svg>